PathFileType	4	(X/Y/Z)	RBDS028\RBDS028runT25.trc
DataRate	CameraRate	NumFrames	NumMarkers	Units	OrigDataRate	OrigDataStartFrame	OrigNumFrames
150.000000	150.000000	5	33	mm	150.000000	1125	4500
Frame#	Time	L.ASIS			L.Heel.Bottom			L.Heel.Lateral			L.Heel.Top			L.Iliac.Crest			L.MT1			L.MT5			L.PSIS			L.Shank.Bottom.Lateral			L.Shank.Bottom.Medial			L.Shank.Top.Lateral			L.Shank.Top.Medial			L.Thigh.Bottom.Lateral			L.Thigh.Bottom.Medial			L.Thigh.Top.Lateral			L.Thigh.Top.Medial			R.ASIS			R.ASY			R.Heel.Bottom			R.Heel.Lateral			R.Heel.Top			R.Iliac.Crest			R.MT1			R.MT5			R.PSIS			R.Shank.Bottom.Lateral			R.Shank.Bottom.Medial			R.Shank.Top.Lateral			R.Shank.Top.Medial			R.Thigh.Bottom.Lateral			R.Thigh.Bottom.Medial			R.Thigh.Top.Lateral			R.Thigh.Top.Medial			
		X1	Y1	Z1	X2	Y2	Z2	X3	Y3	Z3	X4	Y4	Z4	X5	Y5	Z5	X6	Y6	Z6	X7	Y7	Z7	X8	Y8	Z8	X9	Y9	Z9	X10	Y10	Z10	X11	Y11	Z11	X12	Y12	Z12	X13	Y13	Z13	X14	Y14	Z14	X15	Y15	Z15	X16	Y16	Z16	X17	Y17	Z17	X18	Y18	Z18	X19	Y19	Z19	X20	Y20	Z20	X21	Y21	Z21	X22	Y22	Z22	X23	Y23	Z23	X24	Y24	Z24	X25	Y25	Z25	X26	Y26	Z26	X27	Y27	Z27	X28	Y28	Z28	X29	Y29	Z29	X30	Y30	Z30	X31	Y31	Z31	X32	Y32	Z32	X33	Y33	Z33	

1126	7.500000000000001	2084.290153713766	867.7805233440195	943.6138300168751	1925.789802994821	187.6201337447509	993.7680394844258	1953.521978057376	187.6914070566625	946.2547978409835	1960.024384117336	217.4189359979198	992.3890918936895	2023.190038474234	922.4773302220721	904.119935858861	2112.661244527481	65.02191058634828	998.9796036738223	2066.529639750456	91.04621468858677	898.2336017340757	1921.716727545689	890.6542388731518	992.0438677094016	2053.635059012436	257.8985059086806	927.178149245352	2024.043831068248	276.7237383620906	964.845145162246	2085.394448325037	331.0985263354551	912.4707554735646	2060.509266678379	352.4929782112309	954.3353437344743	2200.682018495629	594.2037059891335	879.7353921192899	2147.537735831946	551.5555748572996	905.7749595820549	2131.163171701321	679.0433350687365	875.4232538546407	2079.526761376993	637.1748937519126	896.7272441895241	2051.94465842001	869.7933451529237	1178.742464533788	1789.513878740804	82.80965908155513	1098.461773644648	1605.656154921455	110.6370871050072	1073.584330963486	1637.025756048437	111.6397626577753	1119.748415846358	1632.724444330374	146.8312891818038	1079.543882677212	2008.144878553442	927.9755089925679	1189.157088882852	1807.81665846347	36.14047452031654	1045.55673293419	1760.149694327671	36.08859474559066	1151.012458734118	1914.157388067721	894.9758368389536	1082.439411700309	1734.37349053881	207.9346359935735	1145.321718242614	1707.473660695296	235.312578675897	1105.157350444662	1768.145219966015	278.6483556163364	1167.545164891397	1744.184108489208	303.272499467989	1125.740347186828	1937.11104828736	534.5808417323218	1203.17122627899	1882.39904137796	543.6352100199097	1158.275880124041	1945.242604118161	644.6134356686157	1212.565478779583	1892.644210841492	652.3740181371172	1169.609097796855	
1127	7.506666666666667	2085.326599561432	872.1811729391	943.3124334330604	1946.317992618469	171.6473622552246	993.3305703048976	1974.189461460197	173.3715510581378	946.0318418465712	1978.418092527981	203.6524204327296	992.0993189430798	2023.703283590824	927.3213953480079	904.3392511941121	2141.016481550162	61.84405947975377	1000.301034674776	2093.688332501262	84.472948378239	899.0649732766447	1923.267289236399	894.9915574792466	992.6793669672342	2069.565217100364	250.4222372079406	927.5800469698708	2038.78412772058	267.2345502417705	965.1668750732522	2096.633005922888	325.505431435834	913.0086421319647	2070.371973590137	345.1657772650826	954.8261094243292	2201.641485745563	597.9035665083335	881.5346649461941	2148.201987596314	555.4048694073255	907.178225608398	2132.26040228917	682.7987609787589	876.2284343651671	2080.440271270771	641.1310699080979	897.304266083445	2054.632352590713	871.8137671242948	1178.212803913787	1777.583858382638	84.37448813977785	1099.586447765117	1594.39848085473	120.2267319431213	1074.722046459621	1625.79850315031	119.2779850855969	1120.772502660936	1622.992694174005	155.1307682148997	1081.025163204454	2012.242403795458	931.7222577243964	1189.181590069914	1793.325878352829	36.94999685033612	1045.906365203961	1745.600866809336	38.02097637722041	1151.419036402036	1916.453288460594	899.1431276269093	1083.424442618865	1723.978261247434	214.2799207083763	1146.150842023559	1697.395742539671	241.1880319736696	1105.461665741398	1757.916967872307	285.1731906755923	1167.514573067358	1734.176180761036	309.3163104221058	1125.278422110205	1930.819628800176	539.6933061253952	1202.186419090571	1876.651340896712	550.6191246948753	1156.985511578767	1942.223999081188	649.4236451798104	1211.946137251877	1890.222520520278	658.9761157365674	1168.572376785146	
1128	7.513333333333334	2086.310160293058	876.2834243981955	942.9149673733734	1967.701798020738	156.0433601594107	992.7945672063773	1995.661736706789	159.4223317610238	945.734123263069	1997.491787571414	190.1159683334182	991.6778810793585	2024.061691847117	931.8084126443413	904.6091789747604	2169.192657488371	59.67971181823143	1002.136963309919	2121.192814700205	78.71665595986663	900.2867798452498	1924.830818802495	899.0502351799278	993.4089256608535	2085.786955050504	243.0341129740948	927.9343837631828	2053.851541260021	257.7873981499996	965.3262392782387	2108.051758227391	319.6644667481192	913.3706780181267	2080.392549759555	337.5509835457711	955.0122407424076	2201.944692187798	600.6707048698077	883.3743788255649	2148.077774205725	558.5236261237562	908.6365307738306	2133.001277934643	685.8482140237106	877.0479467179318	2080.859903096786	644.5781880184335	897.9479129960175	2057.505089984335	873.6339374059585	1177.593247239111	1766.009008907464	86.16076468176912	1100.691098658232	1583.890425487334	130.2578053320323	1075.942547668381	1615.261208699276	127.3443323191464	1121.83902766752	1614.023405667677	163.7584523217288	1082.552439486055	2016.655158331278	935.1966923211522	1189.213264644835	1779.189110794764	38.1815230339483	1046.268148890118	1731.448118138068	40.28543619873847	1151.873340169751	1918.785953698547	903.0592697998306	1084.505575631422	1714.273727838769	220.6725117584418	1147.035874492451	1687.990072862817	247.1275056765033	1105.842785311806	1748.396648261743	291.7255669565284	1167.546321902687	1724.85533342084	315.4126192779512	1124.916899651942	1925.161585878412	544.7985028968812	1201.341217982795	1871.519667913972	557.4751322494483	1155.904411209426	1939.702793567677	654.1438224299446	1211.425023647781	1888.302987653751	665.3768180138899	1167.678515223127	
1129	7.52	2087.278166919013	880.043566957462	942.4821796882394	1989.773895318687	140.9721665408931	992.1704571254046	2017.805275555584	145.9956532433126	945.3732782271493	2017.098996670228	176.9620164140398	991.1137329566402	2024.346733753106	935.9178981694859	904.9333331380095	2196.956162503561	58.61476549440636	1004.521923686706	2148.880537974913	73.86015162770722	901.9563629490025	1926.40043078181	902.7753386401671	994.2107388965956	2102.197466246469	235.8575086191015	928.2286115203967	2069.138002502599	248.5164949210457	965.300903202956	2119.599677588209	313.6815984471148	913.5345395015657	2090.514789855041	329.760801720541	954.8651447684628	2201.604264658285	602.485582392898	885.1823357921074	2147.183446106824	560.8870514373003	910.0733180651648	2133.397635947469	688.167339965005	877.8505864473134	2080.803511631696	647.4849856708298	898.6221914922929	2060.48432863321	875.2800081597945	1176.94184286176	1754.759755042722	88.2175346097072	1101.788254231288	1574.17787103809	140.6905565259127	1077.170926963213	1605.420471406967	135.8250165314635	1122.905131443759	1605.83189266401	172.682091354453	1084.07189838724	2021.27173767324	938.3726660206863	1189.239035390652	1765.429477718078	39.87001113509839	1046.670200535983	1717.6723919615	42.91202549729768	1152.359684972556	1921.12074164187	906.6702518591611	1085.649135007356	1705.275021125687	227.0819942046136	1147.943134349725	1679.272084469924	253.1116741719794	1106.278388641171	1739.613423146042	298.2667819269984	1167.623310830161	1716.253437326171	321.5335276542876	1124.645382925507	1920.170586841641	549.8401982271532	1200.603734890327	1867.030429569779	564.1366972452788	1154.99742881759	1937.682551048815	658.7272966616484	1210.989155733453	1886.875120733885	671.5194517202123	1166.917820084706	
1130	7.526666666666667	2088.262874092674	883.427343479079	942.0669805936641	2012.30646912473	126.6067974745183	991.474971360369	2040.428767917691	133.2352410041805	944.9679668610555	2037.044551221293	164.348152580985	990.3979593958647	2024.630041235042	939.6336680595176	905.3077049427109	2224.037026070851	58.70132821809936	1007.461045471869	2176.529643312186	69.93962370277175	904.1142508005285	1927.968533099516	906.1213033245687	995.0634515165134	2118.64598295356	229.0157622465982	928.4482268825502	2084.496769172606	239.5572918740205	965.077057380149	2131.182062484877	307.6744639817765	913.4886437744777	2100.650955443542	321.920443535389	954.3784351129285	2200.650243013744	603.3649856755757	886.8693447162677	2145.565523747775	562.5009472576851	911.4086991304443	2133.466544755101	689.7578449403738	878.5914673920415	2080.305448843839	649.8404602643969	899.2871102390534	2063.496906662168	876.7801573492974	1176.312161177179	1743.798926429424	90.58598573820584	1102.896813607253	1565.295379396923	151.4778103363847	1078.30747498765	1596.265892722479	144.6995959814908	1123.9071415045	1598.42209440657	181.8652285491625	1085.510919981389	2025.959329081103	941.2315510237006	1189.249954101599	1752.064488826313	42.02571753428791	1047.150403662727	1704.235539497786	45.9320760438345	1152.861900266737	1923.429070725571	909.9326779631393	1086.824321616142	1696.983280220174	233.4872948402404	1148.832675978645	1671.250984745206	259.12763357479	1106.733487175244	1731.585480110659	304.7660287994474	1167.720077625487	1708.398303810239	327.6558098668943	1124.438864728514	1915.879426972833	554.7540922642445	1199.938415383331	1863.210121845527	570.5345733306251	1154.223188735677	1936.167465669982	663.1236110264415	1210.624152342422	1885.928841615368	677.3487994532444	1166.27977301873	
